<svg xmlns="http://www.w3.org/2000/svg" width="97" height="32" viewBox="0 0 97 32">
    <g fill="none">
        <path fill="#FFF" d="M44.213 16.012h2.438c.795 0 1.44-.22 1.935-.663.494-.442.742-1.033.742-1.773 0-.757-.243-1.357-.729-1.8-.486-.441-1.135-.662-1.948-.662h-2.438v4.898zm2.862 3.68h-2.888v6.902H40V7.406h7.075c1.908 0 3.458.577 4.65 1.732 1.193 1.155 1.79 2.625 1.79 4.411 0 1.823-.597 3.302-1.79 4.439-1.192 1.136-2.742 1.705-4.65 1.705zm14.946 3.52c.83 0 1.532-.29 2.107-.867.574-.577.86-1.407.86-2.49 0-1.082-.286-1.908-.86-2.476-.575-.568-1.277-.853-2.107-.853-.813 0-1.51.29-2.094.866-.583.578-.874 1.399-.874 2.463 0 1.065.291 1.89.874 2.477.583.586 1.281.88 2.094.88zm0-10.475c1.996 0 3.661.668 4.995 2.003s2 3.04 2 5.115-.666 3.785-2 5.129C65.682 26.328 64.017 27 62.021 27c-1.979 0-3.64-.677-4.982-2.03-1.343-1.353-2.014-3.058-2.014-5.115 0-2.057.671-3.757 2.014-5.101 1.343-1.344 3.003-2.017 4.982-2.017zm13.62 13.857h-4.027V7h4.028v19.594zm7.58 0h-4.029V7h4.028v19.594zm13.779 0H85.95v-3.626l5.803-6.306H86.11v-3.519h10.785v3.383l-6.068 6.523H97v3.545zM29.333 17.334c0 8.1-6.567 14.666-14.667 14.666-1.987 0-3.88-.395-5.609-1.111-4.722-1.956-8.2-6.308-8.919-11.54C.047 18.69 0 18.017 0 17.334 0 9.233 6.566 2.667 14.666 2.667c8.1 0 14.667 6.566 14.667 14.667z"/>
        <path fill="#E3E5F2" d="M14.332 2.667c-.794 0-1.572.06-2.332.176 7.178 1.095 12.67 7.165 12.67 14.49s-5.492 13.395-12.669 14.49c.76.116 1.538.177 2.33.177 8.285 0 15.002-6.566 15.002-14.666 0-8.101-6.717-14.667-15.001-14.667z"/>
        <path fill="#FDD7BD" d="M31.15 16.332l-8.37 5.419c-.596.386-1.318.539-2.024.429-.708-.11-1.432.04-2.03.428l-1.12.725-6.273-9.04 1.54-6.5c.119-.506.178-1.018.178-1.53 0-1.32-.395-2.625-1.154-3.745-.186-.276-.275-.587-.275-.895 0-.525.26-1.041.743-1.353.65-.421 1.511-.343 2.07.188l.998.944c1.14 1.081 2.02 2.398 2.572 3.854l.54 1.424 5.568-3.597c.889-.575 2.092-.324 2.66.567.547.857.266 1.99-.597 2.55-.01.006-.011.017-.008.025.005.009.016.015.027.01.22-.083.45-.123.679-.123.364 0 .725.103 1.034.298.213.135.402.314.55.533.288.425.374.923.28 1.385-.148.73-.69 1.105-.796 1.176-.018.012-.023.036-.01.055.013.017.037.022.054.011.152-.036.306-.053.46-.053.378 0 .753.105 1.072.304.215.134.406.313.553.53.58.855.34 2.007-.535 2.573l-.064.042c-.013.01-.017.025-.01.036l.007.007c.01.007.025.008.037-.002.544-.18 1.135-.098 1.611.203.22.137.413.323.567.55.58.855.34 2.006-.534 2.572z"/>
        <path fill="#87DBFF" d="M17.594 24.948l-3.541 2.34-5.113 3.379C4.207 28.71.72 24.357 0 19.125l5.933-3.921 3.612-2.387c.416-.275.977-.161 1.253.254l7.052 10.626c.275.416.161.975-.256 1.25z"/>
        <path fill="#6FC7FF" d="M17.597 25.092l-3.522 2.241L6 15.763l3.592-2.286c.414-.264.972-.154 1.246.244l7.013 10.174c.274.398.16.933-.254 1.197z"/>
        <g fill="#FAC5AA">
            <path d="M4.04.343L1.213 1.82c-.4.209-.898.1-1.168-.257L2.275.156c.004.009.015.015.026.01.224-.084.458-.125.69-.125.37 0 .736.104 1.05.302zM5.674 3.8L2.908 5.244c-.4.21-.898.1-1.168-.256L3.97 3.58l.096-.044c.012.017.037.021.054.01.155-.036.311-.053.468-.053.383 0 .763.106 1.087.307zM7.298 7.236L4.862 8.508c-.4.209-.898.1-1.168-.256l1.93-1.22c.01.007.026.008.039-.002.551-.183 1.151-.1 1.635.206z" transform="translate(24 6)"/>
        </g>
    </g>
</svg>
