<svg xmlns="http://www.w3.org/2000/svg" width="20" height="20" viewBox="0 0 20 20">
  <g id="send" transform="translate(0 -0.001)">
    <g id="Group_543" data-name="Group 543" transform="translate(0 0.001)">
      <path id="Path_2094" data-name="Path 2094" d="M19.829.172A.586.586,0,0,0,19.2.043L.369,7.574A.586.586,0,0,0,.331,8.645l7.425,3.6,3.6,7.425a.586.586,0,0,0,.527.33H11.9a.586.586,0,0,0,.523-.368L19.959.8A.586.586,0,0,0,19.829.172Zm-17.793,8L16.982,2.191,8.074,11.1Zm9.8,9.8L8.9,11.927,17.81,3.02Z" transform="translate(0 -0.001)" fill="#fff"/>
    </g>
  </g>
</svg>
